<?xml version="1.0" encoding="UTF-8"?>
<svg xmlns="http://www.w3.org/2000/svg"
     viewBox="0 0 111.03854 205.42558"
     preserveAspectRatio="xMidYMid meet">
  <path d="m 171.39781,32.8104 c -4.67235,-0.130028 -6.71171,4.021351 -8.22224,7.716842 -5.43833,14.537767 -9.46128,30.675377 -22.1573,39.390361 -12.67792,-1.308266 -20.9983,3.16118 -25.40569,2.828251 -1.62444,-0.204616 -3.91084,-1.433425 -6.7324,-3.917591 C 94.038758,66.61874 91.836066,51.056596 85.253194,47.423979 c -4.812662,-2.655771 -11.821958,2.216066 -11.423592,7.329785 0.521276,6.691479 13.17344,12.33554 26.080062,31.402734 2.491416,3.787854 4.008376,7.340673 3.974436,10.195244 v 0.01137 0.01189 c 0,1.156818 -1.15951,4.099798 -2.40606,8.974648 -8.063765,31.53488 11.009,58.08618 -9.344646,81.16404 24.424816,-21.48258 5.15444,-48.63273 13.219866,-80.17392 0.39918,-1.56109 0.80305,-2.83319 1.18391,-4.01216 5.3874,0.16431 8.01942,-3.808447 9.91722,-8.235673 4.5883,-11.703207 17.83257,-11.866409 27.84791,-9.654191 9.43075,2.481865 16.69922,14.533647 19.18695,24.182504 -2.63667,1.71634 -3.09302,4.84036 -2.63602,7.51737 1.50144,1.08558 2.79563,1.13686 5.29012,1.28675 0.0754,0.31854 1.27791,5.42099 1.70842,9.49968 0.13929,1.31961 0.43948,4.89849 -0.23668,6.20117 -4.69216,-1.05719 -3.97189,-6.9784 -16.32613,-6.8399 -16.55268,0.18559 -15.22156,14.54319 -33.42174,12.44007 3.2156,1.91949 6.49074,2.43315 9.46299,2.13889 -16.96996,35.67141 10.52148,60.5323 -17.4873,97.36873 32.48265,-37.32175 3.12057,-62.78157 22.67768,-98.76193 5.41753,-2.43449 10.21334,-9.08512 18.81539,-9.18807 7.12401,0.0547 7.70076,1.07606 12.30726,5.30459 -2.46864,7.95616 -4.53563,20.0029 -2.03967,33.6057 2.82678,15.40573 19.49417,40.47796 17.52555,57.88226 3.26982,-15.14908 -11.15917,-45.34477 -13.59194,-58.60315 -2.30204,-12.54591 -0.45663,-23.81149 1.79007,-31.26992 4.90403,0.63776 4.98217,-6.15882 4.50309,-10.69857 -0.44961,-4.25963 -1.38079,-8.14329 -1.51877,-8.71213 7.15171,-0.0271 13.28013,6.40055 14.43839,1.24333 1.22995,-5.47641 -8.92854,-0.26778 -16.61759,-7.29103 -0.56832,-4.46633 -5.01347,-15.749069 -9.86141,-22.619292 -3.31083,-9.207369 5.17263,-27.852255 18.5446,-43.822131 1.79002,-2.137779 2.32442,-4.658731 2.00505,-6.914823 -0.50055,-3.536006 -4.57082,-5.497655 -7.42229,-5.577438 z m -49.49156,82.93344 c -0.34964,0.005 -0.69113,0.0273 -1.0175,0.0641 -1.30767,2.57053 -0.36199,4.94473 -4.02146,11.46803 -2.34817,3.6711 -8.82584,6.05289 -5.13147,9.08937 3.69433,3.03649 5.43429,-4.18738 7.48481,-7.03161 5.29162,-7.14375 7.64502,-6.70347 8.93486,-9.31623 -0.94962,-3.43037 -3.80175,-4.30536 -6.24924,-4.27364 z"
        transform="translate(-73.813342,-32.807421)"
        fill="#D9822B"
        stroke="none"/>
</svg>
